<?xml version="1.0" encoding="UTF-8" standalone="no"?>
<svg
   xmlns:dc="http://purl.org/dc/elements/1.1/"
   xmlns:cc="http://creativecommons.org/ns#"
   xmlns:rdf="http://www.w3.org/1999/02/22-rdf-syntax-ns#"
   xmlns:svg="http://www.w3.org/2000/svg"
   xmlns="http://www.w3.org/2000/svg"
   version="1.1"
   id="svg2"
   viewBox="0 0 1451 150"
   height="150"
   width="1451">
  <defs
     id="defs4" />
  <metadata
     id="metadata7">
    <rdf:RDF>
      <cc:Work
         rdf:about="">
        <dc:format>image/svg+xml</dc:format>
        <dc:type
           rdf:resource="http://purl.org/dc/dcmitype/StillImage" />
        <dc:title></dc:title>
      </cc:Work>
    </rdf:RDF>
  </metadata>
  <g
     transform="translate(0,-902.36216)"
     id="layer1">
    <g
       style="fill:#ffffff;fill-opacity:1"
       id="g3344"
       transform="matrix(1.2397206,0,0,-1.2397206,0,1052.3622)">
      <g
         style="fill:#ffffff;fill-opacity:1"
         id="g3346"
         transform="scale(0.1,0.1)">
        <path
           d="m 3044.38,961.371 c -0.73,-28.808 -1.99,-57.773 -3.77,-86.933 -1.81,-29.161 -4.52,-58.516 -8.11,-88.028 l -28.08,0 -44.27,118.809 -235.44,0 0,-286.211 176.03,0 42.12,79.922 27,0 c 4.32,-71.27 4.32,-144.004 0,-218.164 l -27,0 -42.12,82.089 -176.03,0 0,-301.328 248.4,0 52.92,129.61 27,0 c 5.02,-30.235 8.63,-60.86 10.79,-91.797 2.17,-30.977 2.52,-62.285 1.08,-93.969 l -532.44,0 0,31.332 c 25.2,11.504 54.71,20.137 88.57,25.918 l 0,640.43 c -14.42,2.871 -29.16,6.66 -44.29,11.347 -15.12,4.668 -29.88,9.883 -44.28,15.665 l 0,31.308 511.92,0"
           style="fill:#ffffff;fill-opacity:1;fill-rule:nonzero;stroke:none"
           id="path3348" />
        <path
           d="m 3524.97,383.578 c -7.94,-38.183 -22.33,-68.418 -43.2,-90.723 -20.89,-22.324 -48.98,-33.476 -84.24,-33.476 -23.06,0 -42.67,5.566 -58.87,16.738 -16.19,11.153 -29.7,26.465 -40.5,45.899 -10.8,19.433 -18.73,41.933 -23.76,67.5 -5.03,25.547 -7.55,53.086 -7.55,82.617 0,71.289 12.95,128.34 38.87,171.191 25.93,42.813 63.35,64.258 112.33,64.258 25.91,0 47.15,-1.465 63.72,-4.336 16.55,-2.871 30.94,-7.93 43.2,-15.117 l 0,-304.551 z m 97.2,-116.64 0,750.602 -27,0 c -25.22,-4.33 -51.67,-9.72 -79.38,-16.21 -27.73,-6.482 -52.03,-14.041 -72.9,-22.674 l 0,-28.086 82.08,-8.632 0,-204.122 c -18.01,6.485 -34.56,10.977 -49.69,13.497 -15.11,2.519 -36,3.789 -62.63,3.789 -76.33,0 -137,-24.141 -181.99,-72.364 -45,-48.242 -67.5,-118.457 -67.5,-210.605 0,-95.762 17.64,-166.309 52.92,-211.68 35.28,-45.351 88.57,-68.043 159.85,-68.043 18.71,0 36.18,3.238 52.38,9.719 16.19,6.492 30.59,15.297 43.19,26.469 12.59,11.152 23.23,23.925 31.87,38.34 8.63,14.394 14.75,29.511 18.36,45.351 l 4.31,0 9.73,-117.719 26.99,0 c 21.61,2.891 43.56,7.93 65.88,15.121 22.32,7.188 43.92,15.84 64.81,25.918 l 0,22.696 -71.28,8.633"
           style="fill:#ffffff;fill-opacity:1;fill-rule:nonzero;stroke:none"
           id="path3350" />
        <path
           d="m 3991.52,205.371 -239.76,0 0,26.996 c 10.8,5.762 21.95,10.625 33.48,14.59 11.51,3.945 24.12,7.734 37.8,11.348 l 0,424.433 -71.28,8.633 0,28.086 c 20.88,8.633 43.55,16.191 68.04,22.676 24.47,6.484 48.95,11.875 73.44,16.211 l 27,0 0,-500.039 c 14.4,-3.614 27.36,-7.403 38.88,-11.348 11.51,-3.965 22.31,-8.828 32.4,-14.59 l 0,-26.996"
           style="fill:#ffffff;fill-opacity:1;fill-rule:nonzero;stroke:none"
           id="path3352" />
        <path
           d="m 3802.52,928.969 c 0,19.453 6.3,34.922 18.9,46.445 12.59,11.504 29.33,17.285 50.22,17.285 20.88,0 37.43,-5.781 49.68,-17.285 12.23,-11.523 18.36,-26.992 18.36,-46.445 0,-19.434 -6.13,-34.746 -18.36,-45.899 -12.25,-11.172 -28.8,-16.738 -49.68,-16.738 -20.89,0 -37.63,5.566 -50.22,16.738 -12.6,11.153 -18.9,26.465 -18.9,45.899"
           style="fill:#ffffff;fill-opacity:1;fill-rule:nonzero;stroke:none"
           id="path3354" />
        <path
           d="m 4482.92,280.98 c -12.96,-25.214 -34.02,-46.269 -63.18,-63.183 -29.16,-16.918 -63.18,-25.387 -102.06,-25.387 -42.49,0 -79.38,6.68 -110.7,19.977 -31.33,13.32 -57.43,32.402 -78.3,57.246 -20.9,24.844 -36.55,54.707 -46.98,89.648 -10.45,34.903 -15.66,73.594 -15.66,116.094 0,91.426 22.31,161.465 66.96,210.059 44.64,48.593 105.47,72.91 182.52,72.91 35.27,0 66.77,-3.086 94.5,-9.18 27.7,-6.133 51.3,-14.238 70.74,-24.316 -2.17,-23.75 -6.13,-50.391 -11.88,-79.922 -5.77,-29.531 -12.96,-53.985 -21.6,-73.438 l -29.16,0 -45.37,128.535 c -5.04,3.594 -10.8,6.29 -17.27,8.086 -6.49,1.797 -17.29,2.715 -32.4,2.715 -48.97,0 -86.77,-17.832 -113.4,-53.476 -26.65,-35.625 -39.96,-95.938 -39.96,-180.899 0,-27.363 3.78,-54.004 11.33,-79.922 7.56,-25.918 19.08,-49.14 34.57,-69.648 15.47,-20.527 34.91,-36.914 58.32,-49.141 23.38,-12.246 50.57,-18.359 81.54,-18.359 25.19,0 47.15,3.594 65.88,10.801 18.71,7.187 34.56,15.82 47.52,25.918 l 14.04,-15.118"
           style="fill:#ffffff;fill-opacity:1;fill-rule:nonzero;stroke:none"
           id="path3356" />
        <path
           d="m 4798.27,205.371 -239.77,0 0,26.996 c 10.8,5.762 21.95,10.625 33.48,14.59 11.51,3.945 24.11,7.734 37.8,11.348 l 0,424.433 -71.28,8.633 0,28.086 c 20.88,8.633 43.55,16.191 68.04,22.676 24.47,6.484 48.95,11.875 73.44,16.211 l 27,0 0,-500.039 c 14.4,-3.614 27.36,-7.403 38.88,-11.348 11.5,-3.965 22.3,-8.828 32.41,-14.59 l 0,-26.996"
           style="fill:#ffffff;fill-opacity:1;fill-rule:nonzero;stroke:none"
           id="path3358" />
        <path
           d="m 4609.26,928.969 c 0,19.453 6.3,34.922 18.89,46.445 12.6,11.504 29.34,17.285 50.23,17.285 20.88,0 37.43,-5.781 49.68,-17.285 12.23,-11.523 18.36,-26.992 18.36,-46.445 0,-19.434 -6.13,-34.746 -18.36,-45.899 -12.25,-11.172 -28.8,-16.738 -49.68,-16.738 -20.89,0 -37.63,5.566 -50.23,16.738 -12.59,11.153 -18.89,26.465 -18.89,45.899"
           style="fill:#ffffff;fill-opacity:1;fill-rule:nonzero;stroke:none"
           id="path3360" />
        <path
           d="m 5240.52,297.172 c -24.85,-38.164 -56.7,-57.246 -95.59,-57.246 -30.23,0 -56.15,6.113 -77.75,18.379 -21.6,12.226 -39.06,28.965 -52.39,50.215 -13.32,21.23 -23.04,46.25 -29.16,75.058 -6.11,28.789 -9.17,59.395 -9.17,91.797 0,80.625 12.94,140.02 38.88,178.203 25.92,38.145 60.12,57.246 102.6,57.246 28.07,0 52.19,-6.133 72.36,-18.379 20.16,-12.246 36.72,-28.984 49.69,-50.215 12.95,-21.25 22.48,-46.074 28.59,-74.511 6.14,-28.457 9.18,-59.239 9.18,-92.344 0,-80.645 -12.42,-140.039 -37.24,-178.203 z m 126.35,293.769 c -9.71,34.551 -24.85,64.258 -45.36,89.102 -20.5,24.824 -46.99,44.082 -79.37,57.773 -32.4,13.672 -70.94,20.528 -115.57,20.528 -38.16,0 -72.91,-6.328 -104.22,-18.906 -31.31,-12.618 -58.14,-30.977 -80.45,-55.079 -22.34,-24.14 -39.41,-53.652 -51.3,-88.554 -11.88,-34.942 -17.84,-75.078 -17.84,-120.43 0,-42.5 5.24,-81.191 15.67,-116.094 10.43,-34.941 26.09,-64.804 46.99,-89.648 20.86,-24.844 47.15,-43.926 78.83,-57.246 31.68,-13.297 69.14,-19.977 112.32,-19.977 77.76,0 139.67,24.469 185.76,73.453 46.08,48.946 69.13,118.789 69.13,209.512 0,42.48 -4.87,80.996 -14.59,115.566"
           style="fill:#ffffff;fill-opacity:1;fill-rule:nonzero;stroke:none"
           id="path3362" />
        <path
           d="m 6038.1,205.371 -232.21,0 0,26.996 c 19.45,10.078 40.66,18.731 63.71,25.938 l 0,255.957 c 0,54.707 -7.93,97.91 -23.75,129.59 -15.84,31.679 -44.65,47.519 -86.41,47.519 -18,0 -34.72,-3.242 -50.21,-9.707 -15.49,-6.484 -29.16,-15.312 -41.04,-26.465 -11.87,-11.172 -22.15,-23.769 -30.78,-37.812 -8.63,-14.024 -15.49,-28.614 -20.51,-43.731 l 0,-315.351 c 22.31,-4.336 43.91,-12.969 64.79,-25.938 l 0,-26.996 -233.28,0 0,26.996 c 17.99,9.356 41.74,17.988 71.27,25.938 l 0,424.433 -71.27,8.633 0,28.086 c 18.73,7.91 40.33,15.117 64.8,21.602 24.48,6.484 50.02,12.226 76.68,17.285 l 27.01,0 0,-120.977 1.06,0 c 15.14,33.125 36.91,61.563 65.35,85.332 28.44,23.75 62.81,35.645 103.15,35.645 28.78,0 54.55,-3.438 77.2,-10.274 22.7,-6.855 41.6,-18.886 56.72,-36.172 15.12,-17.285 26.62,-40.507 34.55,-69.668 7.91,-29.16 11.9,-66.054 11.9,-110.703 l 0,-273.222 c 28.77,-5.059 52.54,-13.692 71.27,-25.938 l 0,-26.996"
           style="fill:#ffffff;fill-opacity:1;fill-rule:nonzero;stroke:none"
           id="path3364" />
        <path
           d="m 6436.06,541.801 c -0.37,-6.133 -0.91,-12.422 -1.62,-18.906 l -237.59,0 c 4.31,69.824 17.28,118.613 38.88,146.347 21.6,27.696 52.91,41.582 93.95,41.582 36.72,0 63.73,-13.691 81.01,-41.054 17.27,-27.364 25.9,-64.082 25.9,-110.157 0,-5.761 -0.17,-11.718 -0.53,-17.812 z m 84.24,109.082 c -11.87,26.269 -27.38,47.324 -46.44,63.164 -19.08,15.84 -40.86,27.168 -65.33,34.023 -24.48,6.836 -49.32,10.274 -74.52,10.274 -77.77,0 -137.89,-24.141 -180.37,-72.364 -42.48,-48.242 -63.73,-118.457 -63.73,-210.605 0,-43.203 5.59,-82.07 16.76,-116.641 11.15,-34.55 27.54,-64.257 49.14,-89.101 21.6,-24.844 48.59,-43.926 81,-57.246 32.4,-13.297 69.82,-19.977 112.32,-19.977 19.43,0 38.52,2.36 57.23,7.031 18.71,4.68 36.01,10.954 51.83,18.903 15.84,7.91 29.89,17.265 42.13,28.066 12.25,10.801 21.23,22.305 27.01,34.57 l -15.11,17.266 c -12.97,-11.523 -32.43,-20.879 -58.32,-28.066 -25.94,-7.207 -51.49,-10.801 -76.68,-10.801 -30.98,0 -57.97,5.566 -81.02,16.738 -23.05,11.153 -42.11,26.465 -57.23,45.899 -15.11,19.433 -26.48,42.285 -34.02,68.574 -7.58,26.289 -11.35,54.551 -11.35,84.785 l 336.98,0 c 2.85,14.395 4.84,27.891 5.93,40.508 1.08,12.578 1.61,25 1.61,37.246 0,38.887 -5.94,71.445 -17.82,97.754"
           style="fill:#ffffff;fill-opacity:1;fill-rule:nonzero;stroke:none"
           id="path3366" />
        <path
           d="m 6896.67,328.5 c 0,20.137 -6.31,37.246 -18.91,51.289 -12.59,14.043 -28.59,27.168 -48.04,39.434 -19.46,12.226 -40.16,24.101 -62.11,35.625 -21.96,11.523 -42.66,25.019 -62.09,40.507 -19.44,15.469 -35.47,33.301 -48.07,53.458 -12.6,20.156 -18.91,45 -18.91,74.531 0,19.433 4.5,37.422 13.52,53.984 8.98,16.563 21.06,30.781 36.17,42.676 15.12,11.875 32.76,21.211 52.93,28.066 20.16,6.836 41.74,10.274 64.81,10.274 38.86,0 70.74,-2.168 95.56,-6.485 24.85,-4.316 48.77,-10.449 71.82,-18.359 -2.89,-23.047 -6.31,-46.27 -10.25,-69.668 -3.97,-23.398 -9.56,-47.344 -16.74,-71.816 l -26.99,0 -41.06,110.156 c -8.63,3.594 -18.36,5.937 -29.14,7.031 -10.82,1.074 -21.99,1.621 -33.5,1.621 -12.95,0 -24.29,-2.363 -34,-7.031 -9.73,-4.688 -18.01,-10.625 -24.84,-17.813 -6.88,-7.207 -12.07,-15.488 -15.67,-24.843 -3.61,-9.375 -5.41,-18.731 -5.41,-28.086 0,-19.434 6.31,-36.172 18.91,-50.215 12.6,-14.043 28.61,-26.992 48.06,-38.887 19.44,-11.875 40.12,-23.594 62.09,-35.097 21.96,-11.524 42.68,-24.473 62.09,-38.868 19.46,-14.414 35.47,-31.152 48.09,-50.234 12.58,-19.082 18.89,-41.953 18.89,-68.574 0,-24.492 -5.24,-46.446 -15.67,-65.879 -10.45,-19.434 -24.82,-36.016 -43.18,-49.688 -18.36,-13.671 -39.61,-24.296 -63.73,-31.859 -24.12,-7.551 -49.86,-11.34 -77.23,-11.34 -30.95,0 -59.39,2.711 -85.31,8.102 -25.92,5.41 -52.91,13.125 -81,23.222 1.43,25.918 4.67,50.938 9.73,75.059 5.02,24.121 11.48,47.344 19.41,69.668 l 27.02,0 47.52,-117.734 c 7.91,-5.762 17.46,-9.004 28.63,-9.707 11.13,-0.723 21.4,-1.094 30.78,-1.094 31.66,0 57.23,8.652 76.68,25.937 19.41,17.266 29.14,38.145 29.14,62.637"
           style="fill:#ffffff;fill-opacity:1;fill-rule:nonzero;stroke:none"
           id="path3368" />
        <path
           d="m 7257.16,961.371 354.24,0 0,-41.035 c -15.12,-7.93 -31.86,-14.59 -50.23,-19.981 -18.36,-5.41 -36.17,-9.179 -53.46,-11.347 l 0,-613.438 208.44,0 72.37,193.321 44.27,0 c 2.87,-16.563 5.58,-36.016 8.11,-58.321 2.51,-22.324 4.48,-45.722 5.94,-70.195 1.43,-24.492 2.52,-48.594 3.24,-72.363 0.7,-23.75 0.7,-44.649 0,-62.641 l -592.92,0 0,41.039 c 16.55,8.653 32.22,15.488 46.98,20.528 14.75,5.019 28.61,8.632 41.57,10.8 l 0,611.27 c -35.28,5.762 -64.79,16.211 -88.55,31.328 l 0,41.035"
           style="fill:#ffffff;fill-opacity:1;fill-rule:nonzero;stroke:none"
           id="path3370" />
        <path
           d="m 8127.63,519.652 74.52,204.121 23.76,95.04 2.16,0 20.51,-92.872 70.21,-206.289 -191.16,0 z m 487.08,-254.336 c -14.42,5.391 -28.81,9.532 -43.21,12.422 l -271.07,696.602 -79.92,0 -278.64,-696.602 c -12.96,-2.89 -26.11,-7.031 -39.43,-12.422 -13.33,-5.41 -25.75,-11.718 -37.25,-18.906 l 0,-41.039 266.75,0 0,41.039 c -29.53,16.563 -60.85,27.012 -93.95,31.328 l 63.72,171.719 239.75,0 62.64,-171.719 c -14.4,-2.89 -29.53,-7.207 -45.35,-12.968 -15.85,-5.762 -30.62,-11.875 -44.29,-18.36 l 0,-41.039 338.05,0 0,41.039 c -10.8,7.188 -23.41,13.496 -37.8,18.906"
           style="fill:#ffffff;fill-opacity:1;fill-rule:nonzero;stroke:none"
           id="path3372" />
        <path
           d="m 9107.18,309.594 c -25.92,-26.992 -61.56,-40.508 -106.92,-40.508 -22.33,0 -39.07,0.723 -50.22,2.168 -11.17,1.426 -21.79,3.242 -31.86,5.41 l 0,277.559 57.24,0 c 24.47,0 47.15,-1.993 68.04,-5.957 20.88,-3.965 38.88,-11.153 54,-21.582 15.12,-10.45 27,-24.493 35.64,-42.129 8.64,-17.657 12.96,-40.137 12.96,-67.5 0,-44.649 -12.96,-80.469 -38.88,-107.461 z m -189,583.75 c 9.35,1.426 19.8,2.5 31.32,3.222 11.51,0.723 25.2,1.094 41.04,1.094 37.43,0 68.04,-10.644 91.8,-31.855 23.76,-21.25 35.64,-54.551 35.64,-99.903 0,-30.976 -8.64,-58.515 -25.92,-82.636 -17.28,-24.121 -39.96,-41.934 -68.04,-53.457 -10.8,-1.446 -22.32,-2.696 -34.56,-3.77 -12.25,-1.094 -24.49,-1.621 -36.72,-1.621 l -34.56,0 0,268.926 z m 377.46,-392.598 c -11.88,22.695 -27.18,41.582 -45.9,56.699 -18.73,15.137 -39.79,26.641 -63.18,34.571 -23.41,7.91 -46.63,13.32 -69.66,16.191 l 0,4.336 c 23.03,4.316 44.45,11.504 64.26,21.602 19.8,10.058 37.07,22.675 51.84,37.793 14.74,15.117 26.28,32.558 34.56,52.382 8.27,19.785 12.42,41.211 12.42,64.258 0,36.719 -7.56,66.777 -22.68,90.176 -15.12,23.398 -35.29,41.582 -60.48,54.551 -25.21,12.949 -54,21.953 -86.4,26.992 -32.4,5.019 -65.88,7.558 -100.44,7.558 -31.69,0 -59.77,-1.074 -84.24,-3.242 -24.49,-2.168 -50.41,-3.242 -77.76,-3.242 l -173.88,0 0,-41.035 c 12.96,-7.207 27.36,-13.496 43.2,-18.906 15.83,-5.391 30.95,-9.551 45.36,-12.422 l 0,-611.27 c -14.41,-1.445 -29.35,-5.058 -44.82,-10.8 -15.49,-5.782 -30.07,-12.618 -43.74,-20.528 l 0,-41.039 128.52,0 c 11.51,0 25.73,-0.351 42.66,-1.07 16.91,-0.719 34.38,-1.442 52.38,-2.172 17.98,-0.699 35.99,-1.418 54,-2.149 17.99,-0.718 34.56,-1.089 49.68,-1.089 40.31,0 79.2,4.16 116.64,12.422 37.43,8.261 70.74,21.425 99.9,39.414 29.16,17.988 52.38,41.054 69.66,69.121 17.28,28.086 25.92,61.562 25.92,100.449 0,30.937 -5.94,57.773 -17.82,80.449"
           style="fill:#ffffff;fill-opacity:1;fill-rule:nonzero;stroke:none"
           id="path3374" />
        <path
           d="m 9882.6,961.371 267.8,0 0,-42.109 c -13.6,-10.801 -28.8,-20.332 -45.3,-28.594 -16.6,-8.262 -32.1,-14.551 -46.5,-18.867 l 0,-679.391 -91.76,0 -381.25,550.797 -43.19,83.164 -3.24,0 9.71,-86.387 0,-450.371 c 14.41,-3.613 30.43,-9.55 48.06,-17.812 17.64,-8.301 32.58,-16.738 44.83,-25.391 l 0,-41.039 -266.76,0 0,41.039 c 12.96,8.633 27.17,16.719 42.66,24.278 15.47,7.539 31.49,13.828 48.06,18.867 l 0,588.73 c -14.41,5.742 -28.81,12.207 -43.2,19.395 -14.41,7.207 -27.37,14.746 -38.88,22.656 l 0,41.035 233.27,0 309.97,-449.277 49.68,-92.871 4.32,0 -5.41,92.675 0,359.942 c -17.27,5.742 -34.02,12.734 -50.22,20.996 -16.19,8.281 -30.41,17.07 -42.65,26.426 l 0,42.109"
           style="fill:#ffffff;fill-opacity:1;fill-rule:nonzero;stroke:none"
           id="path3376" />
        <path
           d="m 10434.5,519.652 74.5,204.121 23.8,95.04 2.1,0 20.5,-92.872 70.2,-206.289 -191.1,0 z m 487.1,-254.336 c -14.5,5.391 -28.8,9.532 -43.2,12.422 l -271.1,696.602 -79.9,0 -278.7,-696.602 c -12.9,-2.89 -26.1,-7.031 -39.4,-12.422 -13.3,-5.41 -25.7,-11.718 -37.3,-18.906 l 0,-41.039 266.8,0 0,41.039 c -29.5,16.563 -60.9,27.012 -94,31.328 l 63.8,171.719 239.7,0 62.7,-171.719 c -14.4,-2.89 -29.6,-7.207 -45.4,-12.968 -15.8,-5.762 -30.6,-11.875 -44.3,-18.36 l 0,-41.039 338.1,0 0,41.039 c -10.8,7.188 -23.4,13.496 -37.8,18.906"
           style="fill:#ffffff;fill-opacity:1;fill-rule:nonzero;stroke:none"
           id="path3378" />
        <path
           d="m 11390,631.43 c -26,-26.289 -57.5,-39.414 -94.4,-39.414 l -64.1,0 0,301.328 c 13.8,4.316 31.9,6.465 54.3,6.465 20.3,0 39.1,-2.871 56.5,-8.633 17.3,-5.781 32.5,-14.766 45.6,-26.992 13,-12.266 23.1,-27.911 30.4,-46.993 7.2,-19.082 10.8,-41.953 10.8,-68.574 0,-51.836 -13,-90.898 -39.1,-117.187 z m 259.5,-355.02 c -36,43.633 -70.2,88.867 -102.6,135.723 -32.4,46.836 -63,92.812 -91.8,137.871 43.9,16.641 78.4,41.582 103.7,74.863 25.1,33.281 37.7,75.977 37.7,128.086 0,36.172 -6.6,67.813 -19.9,94.961 -13.4,27.129 -32.1,49.746 -56.2,67.832 -24.1,18.086 -52.9,31.66 -86.4,40.703 -33.5,9.043 -70,13.574 -109.6,13.574 -19.5,0 -39.6,-0.546 -60.5,-1.621 -20.9,-1.093 -41.4,-2.168 -61.6,-3.242 -20.1,-1.094 -39.4,-1.992 -57.7,-2.715 -18.4,-0.722 -34.8,-1.074 -49.2,-1.074 l -114.5,0 0,-41.035 c 23.1,-12.969 52.6,-23.398 88.6,-31.328 l 0,-611.27 c -14.4,-2.89 -28.8,-6.66 -43.2,-11.347 -14.4,-4.688 -29.5,-11.328 -45.4,-19.981 l 0,-41.039 332.7,0 0,41.039 c -12.3,5.703 -24.8,11.426 -37.8,17.149 -13,5.703 -27.8,10.371 -44.3,13.945 l 0,252.949 87.5,0 c 19.4,-50.058 41.9,-101.035 67.5,-152.89 25.5,-51.856 54.9,-97.442 88,-136.778 l 46.4,-35.414 180.4,0 0,36.723 -51.8,34.316"
           style="fill:#ffffff;fill-opacity:1;fill-rule:nonzero;stroke:none"
           id="path3380" />
        <path
           d="m 155.039,875.75 c 28.887,0.012 77.274,-1.668 97.703,-1.445 0.625,0 0.813,-19.461 -1.148,-28.075 C 208.855,659.227 171.023,445.711 126.777,232.383 212.324,218.008 219.336,229.109 435.43,171.988 273.164,198.391 59.082,180.898 0,179.738 l 155.039,696.012 0,0"
           style="fill:#ffffff;fill-opacity:1;fill-rule:nonzero;stroke:none"
           id="path3382" />
        <path
           d="m 329.395,1043.76 c 42.597,0.02 99.929,-0.33 130.085,0.02 0.942,0.02 1.157,-1.83 0.774,-4.53 C 428.301,829.891 370.398,517.656 345.664,339.922 726.453,267.918 920.176,166.34 1028.9,0 812.734,150.629 375.066,245.887 186.453,265.254 l 142.942,778.506 0,0"
           style="fill:#ffffff;fill-opacity:1;fill-rule:nonzero;stroke:none"
           id="path3384" />
        <path
           d="m 2027.28,879.199 c -28.89,0.02 -77.29,-1.66 -97.7,-1.426 -0.64,0 -0.82,-19.484 1.15,-28.085 42.72,-186.993 80.55,-400.508 124.81,-613.848 -85.55,-14.375 -92.56,-3.274 -308.66,-60.379 162.27,26.379 376.35,8.898 435.43,7.719 l -155.03,696.019 0,0"
           style="fill:#ffffff;fill-opacity:1;fill-rule:nonzero;stroke:none"
           id="path3386" />
        <path
           d="m 1852.92,1047.21 c -42.6,0.02 -99.92,-0.33 -130.1,0.02 -0.94,0.02 -1.15,-1.82 -0.74,-4.53 31.93,-209.352 89.84,-521.587 114.55,-699.313 C 1455.85,271.375 1262.14,169.789 1153.41,3.46094 1369.58,154.09 1807.24,249.336 1995.87,268.711 l -142.95,778.499 0,0"
           style="fill:#ffffff;fill-opacity:1;fill-rule:nonzero;stroke:none"
           id="path3388" />
        <path
           d="m 997.629,445.469 c -4.106,-47.141 -2.5,-152.512 -0.844,-173.332 0,0 -115.367,88.625 -187.5,125 -92.5,46.66 -237.769,62.121 -237.769,62.121 l 4.824,30.398 c 21.289,15.821 60.965,21.848 70.816,21.934 l 78.43,459.758 c 2.043,30.792 -20.051,36.632 -61.914,63.602 l 4.805,30.39 c 0,0 46.433,0 131.711,-27.36 51.167,-16.43 122.417,-60.265 122.417,-60.265 l -4.8,-30.41 c -20.078,2.547 -73.52,19.422 -80.469,-11.035 L 768.457,501.434 c 0,0 45.488,-4.852 126.184,-45.996 19.589,-9.981 54.238,-14.129 70.488,32.121 13.711,39.043 20.918,104.558 20.918,104.558 l 32.793,-5.195 C 1001.38,532.137 1000.13,474.219 997.629,445.469 Z M 563.777,1206.5 435.43,364.727 C 666.063,356.602 959.246,203.859 1082.8,28.3906 l 0,877.0194 c -106.784,211.67 -289.03,293.2 -519.023,301.09"
           style="fill:#ffffff;fill-opacity:1;fill-rule:nonzero;stroke:none"
           id="path3390" />
        <path
           d="m 1564.17,407.879 -285.8,369.824 -1.9,-0.379 35.32,-379.14 c 3.34,-19.375 27.09,-21.875 57.99,-18.438 l 3.78,-30.402 c 0,0 -29.27,-7.637 -76.77,-28.887 -47.5,-21.25 -77.91,-49.988 -77.91,-49.988 l 0.41,50.84 c 29.59,15 42.09,26.25 45,60 l -35.82,419.168 c -4.36,37.355 -3.71,55 -18.34,55 -4.48,0 -19.36,-4.286 -19.36,-4.286 0,0 -2.58,22.567 -3.34,30.43 34.22,46.406 91.02,50.516 91.02,50.516 l 270.45,-355.106 -49.61,410.078 c -2.5,12.951 -18.97,12.951 -53.34,12.528 l -3.17,26.293 c 0,0 8.69,14.27 68.38,35.8 61.25,22.08 72.78,20.65 72.78,20.65 l 2.22,-35.15 c -16.46,-5.92 -40.84,-30.92 -38.94,-45.92 l 69.86,-577.474 -52.91,-15.957 z m 67.48,802.071 c -230,-7.87 -412.25,-89.4 -519.03,-301.083 l 0,-877.035 c 123.56,175.477 416.75,328.234 647.39,336.352 l -128.36,841.766"
           style="fill:#ffffff;fill-opacity:1;fill-rule:nonzero;stroke:none"
           id="path3392" />
      </g>
    </g>
  </g>
</svg>
