<?xml version="1.0" encoding="UTF-8" standalone="no"?>
<svg
   xmlns:dc="http://purl.org/dc/elements/1.1/"
   xmlns:cc="http://creativecommons.org/ns#"
   xmlns:rdf="http://www.w3.org/1999/02/22-rdf-syntax-ns#"
   xmlns:svg="http://www.w3.org/2000/svg"
   xmlns="http://www.w3.org/2000/svg"
   version="1.1"
   id="svg2"
   viewBox="0 0 386 100"
   height="100"
   width="386">
  <defs
     id="defs4">
    <clipPath
       clipPathUnits="userSpaceOnUse"
       id="clipPath3350">
      <path
         d="M 0,792 612,792 612,0 0,0 0,792 Z"
         id="path3352" />
    </clipPath>
  </defs>
  <metadata
     id="metadata7">
    <rdf:RDF>
      <cc:Work
         rdf:about="">
        <dc:format>image/svg+xml</dc:format>
        <dc:type
           rdf:resource="http://purl.org/dc/dcmitype/StillImage" />
        <dc:title></dc:title>
      </cc:Work>
    </rdf:RDF>
  </metadata>
  <g
     transform="translate(0,-952.36218)"
     style="display:inline"
     id="layer1">
    <g
       transform="matrix(0.66118321,0,0,0.66118321,-33.996157,898.34519)"
       id="g4496">
      <g
         id="g4460"
         transform="translate(280.17264,-156.21325)">
        <g
           style="fill:#ffffff;fill-opacity:1"
           transform="matrix(1.25,0,0,-1.25,106.64184,252.39882)"
           id="g3370">
          <path
             id="path3372"
             style="fill:#ffffff;fill-opacity:1;fill-rule:nonzero;stroke:none"
             d="m 0,0 c -0.037,-1.44 -0.1,-2.889 -0.189,-4.347 -0.09,-1.458 -0.226,-2.925 -0.405,-4.401 l -1.404,0 -2.214,5.94 -11.772,0 0,-14.31 8.802,0 2.106,3.996 1.35,0 c 0.216,-3.564 0.216,-7.2 0,-10.908 l -1.35,0 -2.106,4.104 -8.802,0 0,-15.066 12.42,0 2.646,6.48 1.35,0 c 0.251,-1.511 0.432,-3.043 0.54,-4.59 0.108,-1.548 0.126,-3.114 0.054,-4.698 l -26.622,0 0,1.567 c 1.26,0.575 2.735,1.006 4.428,1.295 l 0,32.022 c -0.721,0.144 -1.458,0.333 -2.214,0.567 -0.756,0.234 -1.494,0.495 -2.214,0.784 L -25.596,0 0,0 Z" />
        </g>
        <g
           style="fill:#ffffff;fill-opacity:1"
           transform="matrix(1.25,0,0,-1.25,136.67846,288.51095)"
           id="g3374">
          <path
             id="path3376"
             style="fill:#ffffff;fill-opacity:1;fill-rule:nonzero;stroke:none"
             d="m 0,0 c -0.397,-1.909 -1.117,-3.421 -2.16,-4.536 -1.045,-1.116 -2.449,-1.674 -4.212,-1.674 -1.153,0 -2.133,0.278 -2.943,0.837 -0.81,0.558 -1.485,1.323 -2.025,2.295 -0.54,0.972 -0.937,2.097 -1.188,3.375 -0.252,1.277 -0.378,2.654 -0.378,4.131 0,3.564 0.648,6.417 1.944,8.559 1.296,2.141 3.167,3.213 5.616,3.213 1.296,0 2.357,-0.073 3.186,-0.217 C -1.333,15.84 -0.613,15.587 0,15.228 L 0,0 Z m 4.86,-5.832 0,37.53 -1.35,0 C 2.249,31.481 0.926,31.212 -0.459,30.888 -1.846,30.563 -3.061,30.186 -4.104,29.754 l 0,-1.404 L 0,27.918 0,17.712 c -0.9,0.324 -1.728,0.549 -2.484,0.675 -0.756,0.126 -1.801,0.189 -3.132,0.189 -3.817,0 -6.85,-1.207 -9.099,-3.618 -2.25,-2.412 -3.375,-5.923 -3.375,-10.53 0,-4.788 0.882,-8.316 2.646,-10.584 1.763,-2.268 4.428,-3.403 7.992,-3.403 0.935,0 1.809,0.163 2.619,0.487 0.81,0.324 1.529,0.764 2.16,1.323 0.629,0.558 1.161,1.196 1.593,1.917 0.432,0.72 0.737,1.476 0.918,2.268 l 0.216,0 0.486,-5.886 1.35,0 c 1.08,0.144 2.177,0.396 3.294,0.756 1.115,0.359 2.195,0.792 3.24,1.296 l 0,1.134 -3.564,0.432 z" />
        </g>
        <g
           style="fill:#ffffff;fill-opacity:1"
           transform="matrix(1.25,0,0,-1.25,165.83797,299.64858)"
           id="g3378">
          <path
             id="path3380"
             style="fill:#ffffff;fill-opacity:1;fill-rule:nonzero;stroke:none"
             d="m 0,0 -11.988,0 0,1.35 c 0.54,0.288 1.097,0.531 1.674,0.729 0.575,0.197 1.206,0.387 1.89,0.567 l 0,21.222 -3.564,0.432 0,1.404 c 1.044,0.432 2.177,0.81 3.402,1.134 1.223,0.324 2.447,0.594 3.672,0.81 l 1.35,0 0,-25.002 C -2.844,2.466 -2.196,2.276 -1.62,2.079 -1.045,1.881 -0.505,1.638 0,1.35 L 0,0 Z" />
        </g>
        <g
           style="fill:#ffffff;fill-opacity:1"
           transform="matrix(1.25,0,0,-1.25,154.02521,254.42395)"
           id="g3382">
          <path
             id="path3384"
             style="fill:#ffffff;fill-opacity:1;fill-rule:nonzero;stroke:none"
             d="M 0,0 C 0,0.973 0.315,1.746 0.945,2.322 1.575,2.897 2.412,3.187 3.456,3.187 4.5,3.187 5.328,2.897 5.94,2.322 6.552,1.746 6.858,0.973 6.858,0 6.858,-0.972 6.552,-1.737 5.94,-2.295 5.328,-2.854 4.5,-3.132 3.456,-3.132 2.412,-3.132 1.575,-2.854 0.945,-2.295 0.315,-1.737 0,-0.972 0,0" />
        </g>
        <g
           style="fill:#ffffff;fill-opacity:1"
           transform="matrix(1.25,0,0,-1.25,196.55034,294.92332)"
           id="g3386">
          <path
             id="path3388"
             style="fill:#ffffff;fill-opacity:1;fill-rule:nonzero;stroke:none"
             d="m 0,0 c -0.648,-1.261 -1.701,-2.313 -3.159,-3.159 -1.458,-0.846 -3.159,-1.27 -5.103,-1.27 -2.125,0 -3.969,0.334 -5.535,0.999 -1.566,0.666 -2.871,1.62 -3.915,2.863 -1.045,1.242 -1.828,2.735 -2.349,4.482 -0.522,1.745 -0.783,3.68 -0.783,5.805 0,4.571 1.115,8.073 3.348,10.503 2.232,2.429 5.273,3.645 9.126,3.645 1.764,0 3.339,-0.154 4.725,-0.459 1.385,-0.306 2.565,-0.712 3.537,-1.216 -0.108,-1.187 -0.307,-2.519 -0.594,-3.996 -0.289,-1.476 -0.648,-2.699 -1.08,-3.672 l -1.458,0 -2.268,6.427 c -0.252,0.18 -0.54,0.315 -0.864,0.404 -0.324,0.09 -0.864,0.136 -1.62,0.136 -2.448,0 -4.339,-0.891 -5.67,-2.674 -1.333,-1.781 -1.998,-4.797 -1.998,-9.045 0,-1.368 0.189,-2.7 0.567,-3.996 0.378,-1.296 0.953,-2.457 1.728,-3.482 0.774,-1.026 1.745,-1.846 2.916,-2.457 1.169,-0.612 2.529,-0.918 4.077,-0.918 1.26,0 2.357,0.18 3.294,0.54 0.935,0.359 1.728,0.791 2.376,1.296 L 0,0 Z" />
        </g>
        <g
           style="fill:#ffffff;fill-opacity:1"
           transform="matrix(1.25,0,0,-1.25,216.25909,299.64858)"
           id="g3390">
          <path
             id="path3392"
             style="fill:#ffffff;fill-opacity:1;fill-rule:nonzero;stroke:none"
             d="m 0,0 -11.988,0 0,1.35 c 0.54,0.288 1.097,0.531 1.674,0.729 0.575,0.197 1.206,0.387 1.89,0.567 l 0,21.222 -3.564,0.432 0,1.404 c 1.044,0.432 2.177,0.81 3.402,1.134 1.223,0.324 2.447,0.594 3.672,0.81 l 1.35,0 0,-25.002 C -2.844,2.466 -2.196,2.276 -1.62,2.079 -1.045,1.881 -0.505,1.638 0,1.35 L 0,0 Z" />
        </g>
        <g
           style="fill:#ffffff;fill-opacity:1"
           transform="matrix(1.25,0,0,-1.25,204.44647,254.42395)"
           id="g3394">
          <path
             id="path3396"
             style="fill:#ffffff;fill-opacity:1;fill-rule:nonzero;stroke:none"
             d="M 0,0 C 0,0.973 0.315,1.746 0.945,2.322 1.575,2.897 2.412,3.187 3.456,3.187 4.5,3.187 5.328,2.897 5.94,2.322 6.552,1.746 6.858,0.973 6.858,0 6.858,-0.972 6.552,-1.737 5.94,-2.295 5.328,-2.854 4.5,-3.132 3.456,-3.132 2.412,-3.132 1.575,-2.854 0.945,-2.295 0.315,-1.737 0,-0.972 0,0" />
        </g>
        <g
           style="fill:#ffffff;fill-opacity:1"
           transform="matrix(1.25,0,0,-1.25,243.90009,293.91133)"
           id="g3398">
          <path
             id="path3400"
             style="fill:#ffffff;fill-opacity:1;fill-rule:nonzero;stroke:none"
             d="m 0,0 c -1.242,-1.908 -2.835,-2.862 -4.779,-2.862 -1.512,0 -2.808,0.305 -3.888,0.919 -1.08,0.611 -1.953,1.448 -2.619,2.51 -0.667,1.062 -1.152,2.313 -1.458,3.753 -0.306,1.44 -0.459,2.97 -0.459,4.59 0,4.031 0.648,7.001 1.944,8.91 1.296,1.908 3.006,2.863 5.13,2.863 1.404,0 2.609,-0.307 3.618,-0.919 1.008,-0.613 1.836,-1.45 2.484,-2.511 C 0.621,16.19 1.098,14.949 1.404,13.527 1.709,12.104 1.863,10.565 1.863,8.91 1.863,4.878 1.242,1.908 0,0 m 6.318,14.688 c -0.486,1.728 -1.242,3.213 -2.268,4.456 -1.026,1.241 -2.349,2.204 -3.969,2.888 -1.62,0.684 -3.546,1.027 -5.778,1.027 -1.908,0 -3.645,-0.317 -5.211,-0.946 -1.566,-0.631 -2.907,-1.549 -4.023,-2.754 -1.116,-1.207 -1.971,-2.682 -2.565,-4.427 -0.594,-1.747 -0.891,-3.754 -0.891,-6.022 0,-2.125 0.261,-4.059 0.783,-5.805 0.521,-1.747 1.304,-3.24 2.349,-4.482 1.044,-1.242 2.358,-2.196 3.942,-2.862 1.584,-0.665 3.456,-0.999 5.616,-0.999 3.888,0 6.984,1.223 9.288,3.673 2.304,2.447 3.456,5.939 3.456,10.475 0,2.124 -0.243,4.05 -0.729,5.778" />
        </g>
        <g
           style="fill:#ffffff;fill-opacity:1"
           transform="matrix(1.25,0,0,-1.25,293.74872,299.64858)"
           id="g3402">
          <path
             id="path3404"
             style="fill:#ffffff;fill-opacity:1;fill-rule:nonzero;stroke:none"
             d="m 0,0 -11.61,0 0,1.35 c 0.972,0.504 2.033,0.936 3.186,1.296 l 0,12.798 c 0,2.736 -0.397,4.896 -1.188,6.48 -0.792,1.584 -2.233,2.376 -4.32,2.376 -0.901,0 -1.737,-0.162 -2.511,-0.486 -0.775,-0.324 -1.458,-0.765 -2.052,-1.323 -0.594,-0.558 -1.107,-1.188 -1.539,-1.89 -0.432,-0.702 -0.775,-1.431 -1.026,-2.187 l 0,-15.768 c 1.115,-0.216 2.195,-0.648 3.24,-1.296 l 0,-1.35 -11.664,0 0,1.35 c 0.899,0.467 2.087,0.899 3.564,1.296 l 0,21.222 -3.564,0.432 0,1.404 c 0.936,0.396 2.016,0.756 3.24,1.08 1.223,0.324 2.501,0.612 3.834,0.864 l 1.35,0 0,-6.048 0.054,0 c 0.756,1.656 1.844,3.078 3.267,4.266 1.422,1.188 3.14,1.782 5.157,1.782 1.439,0 2.727,-0.171 3.861,-0.513 1.134,-0.343 2.079,-0.945 2.835,-1.809 0.756,-0.864 1.331,-2.025 1.728,-3.483 0.395,-1.458 0.594,-3.303 0.594,-5.535 l 0,-13.662 C -2.125,2.394 -0.937,1.962 0,1.35 L 0,0 Z" />
        </g>
        <g
           style="fill:#ffffff;fill-opacity:1"
           transform="matrix(1.25,0,0,-1.25,318.62184,278.62195)"
           id="g3406">
          <path
             id="path3408"
             style="fill:#ffffff;fill-opacity:1;fill-rule:nonzero;stroke:none"
             d="m 0,0 c -0.019,-0.307 -0.045,-0.621 -0.081,-0.945 l -11.88,0 c 0.216,3.491 0.864,5.93 1.944,7.317 1.08,1.385 2.646,2.079 4.698,2.079 1.836,0 3.186,-0.684 4.05,-2.053 C -0.405,5.03 0.027,3.194 0.027,0.891 0.027,0.603 0.018,0.305 0,0 M 4.212,5.454 C 3.618,6.768 2.843,7.82 1.89,8.612 c -0.954,0.792 -2.043,1.359 -3.267,1.701 -1.224,0.342 -2.466,0.514 -3.726,0.514 -3.888,0 -6.894,-1.207 -9.018,-3.618 -2.125,-2.412 -3.186,-5.923 -3.186,-10.53 0,-2.16 0.279,-4.104 0.837,-5.832 0.558,-1.728 1.377,-3.213 2.457,-4.455 1.08,-1.243 2.43,-2.197 4.05,-2.863 1.62,-0.665 3.491,-0.999 5.616,-0.999 0.972,0 1.926,0.118 2.862,0.352 0.936,0.234 1.8,0.548 2.592,0.945 0.791,0.396 1.494,0.863 2.106,1.403 0.612,0.541 1.061,1.116 1.35,1.729 l -0.756,0.863 c -0.648,-0.576 -1.62,-1.044 -2.916,-1.403 -1.296,-0.36 -2.574,-0.54 -3.834,-0.54 -1.548,0 -2.898,0.278 -4.05,0.837 -1.153,0.557 -2.106,1.323 -2.862,2.295 -0.756,0.971 -1.323,2.114 -1.701,3.428 -0.378,1.315 -0.567,2.728 -0.567,4.24 l 16.848,0 c 0.144,0.719 0.243,1.394 0.297,2.025 0.054,0.629 0.081,1.25 0.081,1.862 0,1.945 -0.297,3.573 -0.891,4.888" />
        </g>
        <g
           style="fill:#ffffff;fill-opacity:1"
           transform="matrix(1.25,0,0,-1.25,347.41021,291.95332)"
           id="g3410">
          <path
             id="path3412"
             style="fill:#ffffff;fill-opacity:1;fill-rule:nonzero;stroke:none"
             d="m 0,0 c 0,1.007 -0.316,1.862 -0.945,2.564 -0.631,0.703 -1.431,1.359 -2.403,1.972 -0.972,0.611 -2.007,1.205 -3.105,1.781 -1.099,0.577 -2.133,1.251 -3.105,2.026 -0.972,0.773 -1.774,1.665 -2.403,2.673 -0.63,1.007 -0.945,2.25 -0.945,3.726 0,0.972 0.224,1.871 0.675,2.699 0.45,0.829 1.053,1.539 1.809,2.134 0.756,0.594 1.637,1.061 2.646,1.404 1.007,0.341 2.087,0.513 3.24,0.513 1.944,0 3.537,-0.108 4.779,-0.324 C 1.485,20.952 2.681,20.646 3.834,20.25 3.689,19.098 3.518,17.937 3.321,16.767 3.123,15.597 2.843,14.399 2.484,13.176 l -1.35,0 -2.052,5.508 c -0.432,0.179 -0.918,0.296 -1.458,0.351 -0.54,0.054 -1.099,0.081 -1.674,0.081 -0.648,0 -1.215,-0.118 -1.701,-0.351 -0.486,-0.235 -0.9,-0.532 -1.242,-0.891 -0.343,-0.36 -0.604,-0.774 -0.783,-1.242 -0.181,-0.469 -0.27,-0.937 -0.27,-1.404 0,-0.972 0.315,-1.809 0.945,-2.511 0.629,-0.702 1.431,-1.35 2.403,-1.945 0.972,-0.593 2.006,-1.179 3.105,-1.754 C -0.496,8.441 0.54,7.794 1.512,7.074 2.484,6.354 3.285,5.517 3.915,4.562 4.544,3.608 4.86,2.465 4.86,1.134 4.86,-0.091 4.598,-1.188 4.077,-2.16 3.555,-3.132 2.835,-3.961 1.917,-4.645 0.999,-5.328 -0.063,-5.859 -1.269,-6.237 -2.476,-6.615 -3.763,-6.805 -5.13,-6.805 c -1.548,0 -2.97,0.136 -4.266,0.406 -1.296,0.27 -2.646,0.656 -4.05,1.161 0.071,1.296 0.234,2.547 0.486,3.753 0.252,1.206 0.575,2.367 0.972,3.483 l 1.35,0 2.376,-5.887 c 0.395,-0.288 0.872,-0.45 1.431,-0.485 0.558,-0.036 1.071,-0.055 1.539,-0.055 1.584,0 2.862,0.433 3.834,1.297 C -0.486,-2.269 0,-1.225 0,0" />
        </g>
        <g
           style="fill:#ffffff;fill-opacity:1"
           transform="matrix(1.25,0,0,-1.25,76.165215,319.89882)"
           id="g3414">
          <path
             id="path3416"
             style="fill:#ffffff;fill-opacity:1;fill-rule:nonzero;stroke:none"
             d="m 0,0 17.712,0 0,-2.052 c -0.756,-0.396 -1.593,-0.729 -2.511,-0.999 -0.918,-0.27 -1.809,-0.459 -2.673,-0.567 l 0,-30.672 10.422,0 3.618,9.666 2.214,0 c 0.143,-0.828 0.279,-1.801 0.405,-2.916 0.125,-1.116 0.224,-2.286 0.297,-3.51 0.072,-1.224 0.126,-2.429 0.162,-3.618 0.035,-1.187 0.035,-2.232 0,-3.132 l -29.646,0 0,2.052 c 0.828,0.433 1.611,0.774 2.349,1.026 0.737,0.251 1.431,0.432 2.079,0.54 l 0,30.564 C 2.664,-3.33 1.188,-2.808 0,-2.052 L 0,0 Z" />
        </g>
        <g
           style="fill:#ffffff;fill-opacity:1"
           transform="matrix(1.25,0,0,-1.25,130.56946,347.50633)"
           id="g3418">
          <path
             id="path3420"
             style="fill:#ffffff;fill-opacity:1;fill-rule:nonzero;stroke:none"
             d="m 0,0 3.726,10.206 1.188,4.752 0.108,0 L 6.048,10.314 9.558,0 0,0 Z m 24.354,-12.717 c -0.721,0.27 -1.44,0.477 -2.16,0.621 l -13.554,34.83 -3.996,0 -13.932,-34.83 c -0.648,-0.144 -1.305,-0.351 -1.971,-0.621 -0.667,-0.27 -1.288,-0.586 -1.863,-0.945 l 0,-2.052 13.338,0 0,2.052 c -1.477,0.828 -3.043,1.35 -4.698,1.566 l 3.186,8.586 11.988,0 3.132,-8.586 c -0.72,-0.144 -1.477,-0.36 -2.268,-0.648 -0.792,-0.288 -1.531,-0.594 -2.214,-0.918 l 0,-2.052 16.902,0 0,2.052 c -0.54,0.359 -1.17,0.675 -1.89,0.945" />
        </g>
        <g
           style="fill:#ffffff;fill-opacity:1"
           transform="matrix(1.25,0,0,-1.25,191.79134,360.63495)"
           id="g3422">
          <path
             id="path3424"
             style="fill:#ffffff;fill-opacity:1;fill-rule:nonzero;stroke:none"
             d="m 0,0 c -1.296,-1.35 -3.078,-2.025 -5.346,-2.025 -1.116,0 -1.953,0.036 -2.511,0.108 -0.559,0.071 -1.089,0.162 -1.593,0.271 l 0,13.877 2.862,0 c 1.224,0 2.358,-0.099 3.402,-0.297 1.044,-0.199 1.944,-0.558 2.7,-1.08 C 0.27,10.332 0.864,9.63 1.296,8.748 1.728,7.865 1.944,6.741 1.944,5.373 1.944,3.141 1.296,1.35 0,0 m -9.45,29.187 c 0.468,0.072 0.99,0.125 1.566,0.162 0.575,0.036 1.26,0.054 2.052,0.054 1.872,0 3.402,-0.532 4.59,-1.592 1.188,-1.063 1.782,-2.728 1.782,-4.996 0,-1.548 -0.432,-2.925 -1.296,-4.131 -0.864,-1.206 -1.998,-2.097 -3.402,-2.673 -0.54,-0.073 -1.116,-0.135 -1.728,-0.189 -0.613,-0.054 -1.224,-0.081 -1.836,-0.081 l -1.728,0 0,13.446 z M 9.423,9.558 c -0.594,1.134 -1.359,2.079 -2.295,2.835 -0.937,0.756 -1.989,1.332 -3.159,1.728 -1.17,0.396 -2.331,0.666 -3.483,0.81 l 0,0.216 c 1.152,0.216 2.222,0.576 3.213,1.081 0.99,0.502 1.854,1.133 2.592,1.889 0.737,0.756 1.314,1.628 1.728,2.619 0.414,0.99 0.621,2.061 0.621,3.213 0,1.836 -0.378,3.339 -1.134,4.509 -0.756,1.17 -1.764,2.079 -3.024,2.728 -1.26,0.647 -2.7,1.097 -4.32,1.349 -1.62,0.251 -3.294,0.378 -5.022,0.378 -1.584,0 -2.989,-0.054 -4.212,-0.162 -1.224,-0.108 -2.52,-0.162 -3.888,-0.162 l -8.694,0 0,-2.052 c 0.648,-0.36 1.368,-0.675 2.16,-0.945 0.791,-0.27 1.548,-0.478 2.268,-0.621 l 0,-30.564 c -0.72,-0.072 -1.467,-0.253 -2.241,-0.54 -0.774,-0.289 -1.503,-0.631 -2.187,-1.026 l 0,-2.052 6.426,0 c 0.576,0 1.287,-0.018 2.133,-0.054 0.845,-0.036 1.719,-0.072 2.619,-0.108 0.899,-0.035 1.8,-0.071 2.7,-0.107 0.9,-0.037 1.728,-0.055 2.484,-0.055 2.016,0 3.96,0.208 5.832,0.621 1.872,0.413 3.537,1.071 4.995,1.971 1.458,0.899 2.619,2.052 3.483,3.456 0.864,1.404 1.296,3.078 1.296,5.022 0,1.547 -0.297,2.889 -0.891,4.023" />
        </g>
        <g
           style="fill:#ffffff;fill-opacity:1"
           transform="matrix(1.25,0,0,-1.25,240.25509,319.89882)"
           id="g3426">
          <path
             id="path3428"
             style="fill:#ffffff;fill-opacity:1;fill-rule:nonzero;stroke:none"
             d="m 0,0 13.392,0 0,-2.105 c -0.684,-0.541 -1.44,-1.017 -2.268,-1.43 -0.829,-0.413 -1.602,-0.728 -2.322,-0.944 l 0,-33.969 -4.59,0 -19.062,27.54 -2.16,4.158 -0.162,0 0.486,-4.319 0,-22.519 c 0.72,-0.181 1.52,-0.477 2.403,-0.891 0.882,-0.415 1.629,-0.836 2.241,-1.269 l 0,-2.052 -13.338,0 0,2.052 c 0.648,0.432 1.359,0.836 2.133,1.214 0.774,0.377 1.575,0.691 2.403,0.943 l 0,29.437 c -0.72,0.287 -1.44,0.61 -2.16,0.969 -0.721,0.361 -1.369,0.738 -1.944,1.133 l 0,2.052 11.664,0 15.498,-22.464 2.484,-4.643 0.216,0 -0.27,4.633 0,17.997 C 3.78,-4.189 2.943,-3.84 2.133,-3.427 1.323,-3.013 0.612,-2.573 0,-2.105 L 0,0 Z" />
        </g>
        <g
           style="fill:#ffffff;fill-opacity:1"
           transform="matrix(1.25,0,0,-1.25,274.74797,347.50633)"
           id="g3430">
          <path
             id="path3432"
             style="fill:#ffffff;fill-opacity:1;fill-rule:nonzero;stroke:none"
             d="m 0,0 3.726,10.206 1.188,4.752 0.108,0 L 6.048,10.314 9.558,0 0,0 Z m 24.354,-12.717 c -0.721,0.27 -1.44,0.477 -2.16,0.621 l -13.554,34.83 -3.996,0 -13.932,-34.83 c -0.648,-0.144 -1.305,-0.351 -1.971,-0.621 -0.667,-0.27 -1.288,-0.586 -1.863,-0.945 l 0,-2.052 13.338,0 0,2.052 c -1.477,0.828 -3.043,1.35 -4.698,1.566 l 3.186,8.586 11.988,0 3.132,-8.586 c -0.72,-0.144 -1.477,-0.36 -2.268,-0.648 -0.792,-0.288 -1.531,-0.594 -2.214,-0.918 l 0,-2.052 16.902,0 0,2.052 c -0.54,0.359 -1.17,0.675 -1.89,0.945" />
        </g>
        <g
           style="fill:#ffffff;fill-opacity:1"
           transform="matrix(1.25,0,0,-1.25,334.47084,340.5202)"
           id="g3434">
          <path
             id="path3436"
             style="fill:#ffffff;fill-opacity:1;fill-rule:nonzero;stroke:none"
             d="m 0,0 c -1.303,-1.314 -2.877,-1.971 -4.724,-1.971 l -3.203,0 0,15.067 c 0.688,0.216 1.593,0.323 2.715,0.323 1.012,0 1.953,-0.144 2.822,-0.432 0.869,-0.289 1.63,-0.738 2.281,-1.349 C 0.542,11.024 1.049,10.242 1.412,9.288 1.773,8.334 1.955,7.19 1.955,5.859 1.955,3.268 1.303,1.314 0,0 m 12.971,-17.751 c -1.801,2.182 -3.51,4.443 -5.13,6.786 -1.62,2.342 -3.151,4.641 -4.59,6.894 2.195,0.832 3.923,2.079 5.184,3.743 1.259,1.664 1.89,3.799 1.89,6.404 0,1.809 -0.333,3.391 -0.999,4.748 -0.667,1.357 -1.602,2.488 -2.808,3.392 -1.206,0.904 -2.646,1.583 -4.32,2.035 -1.674,0.452 -3.502,0.679 -5.481,0.679 -0.972,0 -1.981,-0.028 -3.024,-0.081 -1.045,-0.055 -2.071,-0.109 -3.078,-0.162 -1.009,-0.055 -1.971,-0.1 -2.889,-0.136 -0.918,-0.036 -1.737,-0.054 -2.457,-0.054 l -5.724,0 0,-2.052 c 1.152,-0.648 2.627,-1.17 4.428,-1.566 l 0,-30.564 c -0.721,-0.144 -1.44,-0.333 -2.16,-0.567 -0.721,-0.234 -1.477,-0.566 -2.268,-0.999 l 0,-2.052 16.632,0 0,2.052 c -0.613,0.285 -1.242,0.571 -1.89,0.857 -0.648,0.286 -1.387,0.519 -2.214,0.698 l 0,12.647 4.374,0 c 0.972,-2.503 2.096,-5.052 3.375,-7.644 1.277,-2.593 2.744,-4.872 4.401,-6.839 l 2.322,-1.771 9.018,0 0,1.836 -2.592,1.716 z" />
        </g>
      </g>
      <g
         id="g4446"
         transform="translate(-24.852814,-3.63961)">
        <g
           style="fill:#ffffff;fill-opacity:1"
           transform="matrix(1.25,0,0,-1.25,95.649965,127.11195)"
           id="g3354">
          <path
             id="path3356"
             style="fill:#ffffff;fill-opacity:1;fill-rule:nonzero;stroke:none"
             d="m 0,0 c 2.889,0.001 7.728,-0.167 9.771,-0.145 0.062,0 0.081,-1.946 -0.116,-2.807 -4.273,-18.7 -8.056,-40.052 -12.481,-61.385 8.555,-1.437 9.256,-0.327 30.865,-6.039 -16.226,2.64 -37.635,0.891 -43.543,0.774 L 0,0 Z" />
        </g>
        <g
           style="fill:#ffffff;fill-opacity:1"
           transform="matrix(1.25,0,0,-1.25,117.44447,106.11108)"
           id="g3358">
          <path
             id="path3360"
             style="fill:#ffffff;fill-opacity:1;fill-rule:nonzero;stroke:none"
             d="m 0,0 c 4.26,0.002 9.993,-0.033 13.009,0.002 0.094,0.002 0.115,-0.183 0.077,-0.453 C 9.891,-21.387 4.101,-52.61 1.627,-70.384 c 38.079,-7.2 57.451,-17.358 68.323,-33.992 -21.616,15.063 -65.383,24.589 -84.244,26.525 L 0,0 Z" />
        </g>
        <g
           style="fill:#ffffff;fill-opacity:1"
           transform="matrix(1.25,0,0,-1.25,329.67959,126.68107)"
           id="g3362">
          <path
             id="path3364"
             style="fill:#ffffff;fill-opacity:1;fill-rule:nonzero;stroke:none"
             d="m 0,0 c -2.889,0.002 -7.729,-0.166 -9.77,-0.143 -0.064,0 -0.082,-1.948 0.116,-2.808 4.271,-18.699 8.054,-40.051 12.48,-61.385 -8.555,-1.437 -9.256,-0.327 -30.865,-6.038 16.226,2.639 37.635,0.891 43.543,0.772 L 0,0 Z" />
        </g>
        <g
           style="fill:#ffffff;fill-opacity:1"
           transform="matrix(1.25,0,0,-1.25,307.88509,105.67895)"
           id="g3366">
          <path
             id="path3368"
             style="fill:#ffffff;fill-opacity:1;fill-rule:nonzero;stroke:none"
             d="m 0,0 c -4.26,0.001 -9.992,-0.033 -13.01,0.001 -0.094,0.003 -0.115,-0.182 -0.074,-0.452 3.193,-20.936 8.984,-52.159 11.455,-69.932 -38.078,-7.201 -57.449,-17.359 -68.322,-33.993 21.617,15.063 65.383,24.588 84.246,26.525 L 0,0 Z" />
        </g>
        <g
           style="fill:#ffffff;fill-opacity:1"
           transform="matrix(1.25,0,0,-1.25,200.97346,180.89745)"
           id="g3438">
          <path
             id="path3440"
             style="fill:#ffffff;fill-opacity:1;fill-rule:nonzero;stroke:none"
             d="m 0,0 c -0.41,-4.714 -0.25,-15.251 -0.084,-17.333 0,0 -11.537,8.862 -18.75,12.5 -9.25,4.666 -23.777,6.212 -23.777,6.212 l 0.482,3.04 c 2.129,1.582 6.097,2.185 7.082,2.193 l 7.843,45.976 c 0.204,3.079 -2.005,3.663 -6.192,6.36 l 0.481,3.039 c 0,0 4.644,0 13.171,-2.736 5.117,-1.643 12.242,-6.026 12.242,-6.026 l -0.48,-3.041 c -2.008,0.254 -7.352,1.942 -8.047,-1.104 L -22.917,5.597 c 0,0 4.549,-0.486 12.618,-4.6 1.959,-0.998 5.424,-1.413 7.049,3.212 1.371,3.904 2.092,10.456 2.092,10.456 L 2.121,14.146 C 0.375,8.667 0.25,2.875 0,0 M -43.385,76.104 -56.22,-8.074 c 23.064,-0.813 52.382,-16.087 64.738,-33.634 l 0,87.702 c -10.679,21.167 -28.904,29.32 -51.903,30.11" />
        </g>
        <g
           style="fill:#ffffff;fill-opacity:1"
           transform="matrix(1.25,0,0,-1.25,271.79134,185.59582)"
           id="g3442">
          <path
             id="path3444"
             style="fill:#ffffff;fill-opacity:1;fill-rule:nonzero;stroke:none"
             d="m 0,0 -28.58,36.982 -0.19,-0.038 3.532,-37.914 c 0.334,-1.937 2.709,-2.187 5.799,-1.843 l 0.378,-3.041 c 0,0 -2.927,-0.763 -7.677,-2.888 -4.75,-2.125 -7.791,-4.999 -7.791,-4.999 l 0.041,5.084 c 2.959,1.5 4.209,2.625 4.5,6 L -33.57,39.26 c -0.436,3.735 -0.371,5.5 -1.834,5.5 -0.448,0 -1.936,-0.429 -1.936,-0.429 0,0 -0.258,2.257 -0.334,3.043 3.422,4.641 9.102,5.052 9.102,5.052 L -1.527,16.915 -6.488,57.923 c -0.25,1.295 -1.897,1.295 -5.334,1.253 l -0.317,2.629 c 0,0 0.869,1.427 6.838,3.58 6.125,2.208 7.278,2.065 7.278,2.065 L 2.199,63.935 C 0.553,63.343 -1.885,60.843 -1.695,59.343 L 5.291,1.596 0,0 Z m 6.748,80.207 c -23,-0.787 -41.224,-8.94 -51.903,-30.108 l 0,-87.703 C -32.799,-20.057 -3.48,-4.781 19.584,-3.97 L 6.748,80.207 Z" />
        </g>
      </g>
    </g>
  </g>
</svg>
